# xmcd
#
# Track frame offsets:
#	150
#	15448
#	32452
#	48204
#	66511
#	82628
#	100154
#	122001
#	139969
#	158500
#	176664
#
# Disc length: 2591 seconds
#
# Revision: 0
# Processed by: cddbd v1.5.1PL0 Copyright (c) Steve Scherf et al.
# Submitted via: dBpowerAMP V4.0
#
DISCID=7d0a1d0b
DTITLE=Torrey Carter - The Life I live
DYEAR=2000
DGENRE=R&B
TTITLE0=Floss Ya Jewels
TTITLE1=Take That (Featuring Missy Elliot)
TTITLE2=Shotgun
TTITLE3=The Life I Live (Featuring Nokio)
TTITLE4=Cream (Ride Or Die) (Featuring Lil' Mo)
TTITLE5=We Gon' Do
TTITLE6=Anything You Want
TTITLE7=Now I Got A Girl
TTITLE8=Same Ol'
TTITLE9=Start Explaining
TTITLE10=Baby Is Mine
EXTD=TC/TLIL--MDC
EXTT0=
EXTT1=
EXTT2=
EXTT3=
EXTT4=
EXTT5=
EXTT6=
EXTT7=
EXTT8=
EXTT9=
EXTT10=
PLAYORDER=
